<svg xmlns="http://www.w3.org/2000/svg" viewBox="0 0 100 100">
  <defs>
    <linearGradient id="dreamGradient" x1="0%" y1="0%" x2="100%" y2="100%">
      <stop offset="0%" style="stop-color:#8a2be2;stop-opacity:1" />
      <stop offset="100%" style="stop-color:#48d1cc;stop-opacity:1" />
    </linearGradient>
  </defs>
  
  <!-- Moon -->
  <circle cx="50" cy="50" r="35" fill="url(#dreamGradient)"/>
  
  <!-- Stars -->
  <path d="M 25 20 L 27 25 L 32 25 L 28 28 L 30 33 L 25 30 L 20 33 L 22 28 L 18 25 L 23 25 Z" fill="#fff" opacity="0.9"/>
  <path d="M 70 30 L 71 33 L 74 33 L 72 35 L 73 38 L 70 36 L 67 38 L 68 35 L 66 33 L 69 33 Z" fill="#fff" opacity="0.8"/>
  <path d="M 75 55 L 76 57 L 78 57 L 77 59 L 78 61 L 75 59 L 73 61 L 74 59 L 72 57 L 74 57 Z" fill="#fff" opacity="0.7"/>
</svg>
